<svg xmlns="http://www.w3.org/2000/svg" viewBox="0 0 438.04 115.22"><defs><style>.cls-1{fill:#b18e71;}.cls-2{fill:#9e7557;}.cls-3{font-size:24px;font-family:BookAntiqua-Bold, Book Antiqua;font-weight:700;letter-spacing:0.03em;}.cls-3,.cls-4{fill:#4d3a40;}</style></defs><title>Asset 3</title><g id="Layer_2" data-name="Layer 2"><g id="Objects"><path class="cls-1" d="M0,95.91c45.15-13.77,83.67,30.72,127.58,16.46l13-67.06C96.63,59.57,58.11,15.08,13,28.85,49.12,68,29.82,73.1,0,95.91Z"/><path class="cls-2" d="M127.58,112.37c5.17-21.62,7.72-37.61,13-60.16-17.06-11.87-30-31.73-44.75-50.78L69.06,55.53C88.79,81,104.55,97.49,127.58,112.37Z"/><path class="cls-1" d="M438,94.48c-45.14-13.77-83.66,30.72-127.58,16.46l-13-67.06c43.92,14.26,82.44-30.23,127.58-16.46C388.93,66.59,408.22,71.67,438,94.48Z"/><path class="cls-2" d="M310.46,110.94c-5.17-21.62-7.72-37.61-13-60.16,17.06-11.87,30-31.72,44.75-50.78L369,54.1C349.26,79.6,333.5,96.06,310.46,110.94Z"/><path class="cls-1" d="M342.56.43,369.9,54A298.23,298.23,0,0,1,218.32,95.91,298.21,298.21,0,0,1,68.83,55.27l27-53.84A244.49,244.49,0,0,0,218.32,34.74,244.54,244.54,0,0,0,342.56.43Z"/><text class="cls-3" transform="translate(164.63 61.85)">Fur Swap</text><path class="cls-4" d="M126.21,69.29a4.44,4.44,0,0,0-.18.83,1.06,1.06,0,0,0,.35.56,1.86,1.86,0,0,0,.77.43,1.38,1.38,0,0,0,.93,0,.73.73,0,0,0,.47-.51.7.7,0,0,0,0-.57,2.11,2.11,0,0,0-.78-.6,6.85,6.85,0,0,1-1.2-.79,1.3,1.3,0,0,1-.34-.63,1.76,1.76,0,0,1,.06-.81,1.72,1.72,0,0,1,.57-.82,1.88,1.88,0,0,1,1-.38,3.53,3.53,0,0,1,1.39.2,5,5,0,0,1,1.51.76,10.16,10.16,0,0,0-.54,1.39l-.46-.15a2.92,2.92,0,0,0,.12-.74.74.74,0,0,0-.25-.37,1.65,1.65,0,0,0-.67-.38,1.3,1.3,0,0,0-.82,0,.65.65,0,0,0-.44.44.56.56,0,0,0,.1.54,3.35,3.35,0,0,0,1.05.71,7.2,7.2,0,0,1,.82.48,1.43,1.43,0,0,1,.47.69,1.58,1.58,0,0,1,0,.88,1.68,1.68,0,0,1-1.22,1.21,3.4,3.4,0,0,1-2-.07,5.31,5.31,0,0,1-.76-.33,7.75,7.75,0,0,1-.86-.53l-.06-.12a13.38,13.38,0,0,0,.58-1.5Z"/><path class="cls-4" d="M131.73,68.08l.92-.26c.19-.66.35-1.25.47-1.75a10.05,10.05,0,0,0,1.66-.13l.13.18c-.24.52-.51,1.23-.82,2.13a3.33,3.33,0,0,0,.52.21,7.64,7.64,0,0,0,1.09.23l0,0a1.74,1.74,0,0,1-.11.18c-.12.2-.22.38-.3.55-.45-.17-.77-.28-1-.34a4.05,4.05,0,0,0-.47-.12l-.31,1A10.1,10.1,0,0,0,133,72.2c0,.19.19.33.49.42a1.16,1.16,0,0,0,.29,0,1.83,1.83,0,0,0,.34,0c0,.08,0,.16,0,.24-.31.19-.62.38-.92.58a4.08,4.08,0,0,1-.42-.07,2.44,2.44,0,0,1-.34-.08,1.92,1.92,0,0,1-.78-.41,1.11,1.11,0,0,1-.36-.57,1.62,1.62,0,0,1,.08-.81l.46-1.41c.22-.66.38-1.19.5-1.58l-.29-.1a4.74,4.74,0,0,0-.49-.11Z"/><path class="cls-4" d="M140.5,75l-.12.47-.45-.14-.73-.22c-.37-.1-.73-.18-1.07-.25a.59.59,0,0,0,0-.08l.27-.76-1.48.54a3.16,3.16,0,0,1-.61-.09,1.36,1.36,0,0,1-.87-.63,1.47,1.47,0,0,1,0-1.14,1.44,1.44,0,0,1,.8-1.05,7.45,7.45,0,0,1,2.87-.06,1.77,1.77,0,0,0,0-1,1.44,1.44,0,0,0-1.21-.74,1.56,1.56,0,0,0-.37,0l-.43.53-.38-.21c0-.09.06-.17.08-.25s.05-.17.07-.25l.06-.23a8.78,8.78,0,0,1,1.47-.31,2.82,2.82,0,0,1,.82.12,2.88,2.88,0,0,1,1.07.51,1.4,1.4,0,0,1,.48.72,2.23,2.23,0,0,1-.07,1.06c-.06.18-.15.51-.3,1s-.26.88-.34,1.17a6.18,6.18,0,0,0-.19.88.21.21,0,0,0,.08.17A2.54,2.54,0,0,0,140.5,75Zm-1.6-2.93a3.86,3.86,0,0,0-1.48.1.86.86,0,0,0-.5.58.76.76,0,0,0,.05.6.71.71,0,0,0,.45.34,1.41,1.41,0,0,0,1.1-.24Z"/><path class="cls-4" d="M141.24,75.68c0-.16.09-.31.13-.47a2.71,2.71,0,0,0,.76.12.28.28,0,0,0,.11-.08,6.86,6.86,0,0,0,.36-1.13q.28-1,.57-2.1c.16-.59.34-1.35.56-2.29A11.06,11.06,0,0,0,144,68.6a.28.28,0,0,0-.08-.2,2.57,2.57,0,0,0-.66-.24c0-.14.07-.27.1-.41a9.9,9.9,0,0,0,1.31.15,4.8,4.8,0,0,0,1-.06.46.46,0,0,1,.17,0c.05,0,.08.07.05.17s-.05.17-.08.25c-.08.27-.37,1.34-.85,3.19-.14.53-.28,1.06-.41,1.59,0,.1-.05.21-.07.31a23.6,23.6,0,0,0,3.18-1.81c.27.09.52.16.74.21s.54.12.84.17c0,.16-.08.31-.11.47a6.86,6.86,0,0,0-.81-.12,1.79,1.79,0,0,0-.46.15c-.21.09-.8.38-1.78.87.2.39.41.77.62,1.15.73,1.31,1.16,2.06,1.31,2.24a.81.81,0,0,0,.43.28l-.11.47q-.66-.2-1.23-.33c-.29-.07-.58-.13-.86-.17-.28-.6-.55-1.16-.84-1.68-.39-.71-.71-1.27-1-1.67-.08.3-.16.61-.23.92a5.13,5.13,0,0,0-.21,1.1.28.28,0,0,0,.08.2,2.77,2.77,0,0,0,.7.27l-.11.46L143,76.11Z"/><path class="cls-4" d="M154.32,77.65l.14.21-.39.49a3.4,3.4,0,0,1-1,.18,4,4,0,0,1-1.08-.11,2.86,2.86,0,0,1-1.89-1.19,2.77,2.77,0,0,1-.28-2.21,4.07,4.07,0,0,1,.54-1.32,1.75,1.75,0,0,1,.75-.59,7,7,0,0,1,1.06-.34,2.52,2.52,0,0,1,1.22,0,2.46,2.46,0,0,1,1.48.87,2.11,2.11,0,0,1,.27,1.83c0,.1-.06.24-.12.43l-1,0c-.31,0-.75-.13-1.31-.26l-1.29-.29a2.32,2.32,0,0,0,.27,1.62,1.9,1.9,0,0,0,1.23.8,2.72,2.72,0,0,0,.7.06A3.06,3.06,0,0,0,154.32,77.65Zm-2.82-3c.35.11.7.2,1.06.28s.64.13,1,.18a2.68,2.68,0,0,0,.07-.27,1.68,1.68,0,0,0,0-1.09.92.92,0,0,0-.65-.49,1.13,1.13,0,0,0-.58,0,1,1,0,0,0-.44.35A4.15,4.15,0,0,0,151.5,74.7Z"/><path class="cls-4" d="M159,79.79c0-.17.06-.33.1-.49a2.1,2.1,0,0,0,.91.07c.07,0,.13-.16.19-.39.2-.73.39-1.59.58-2.57.14-.73.28-1.51.43-2.34a8.57,8.57,0,0,0,.18-1.46.22.22,0,0,0-.08-.14,3.22,3.22,0,0,0-.8-.26c0-.16.07-.33.1-.49.68.16,1.26.28,1.76.38.72.14,1.47.28,2.26.41l1.32.23q.38.06.72.15a.65.65,0,0,1,0,.13,13.1,13.1,0,0,0-.45,1.67l-.5-.09.06-.62c0-.2,0-.33,0-.38a1.16,1.16,0,0,0-.41-.21,6.87,6.87,0,0,0-1.06-.27c-.34-.06-.7-.11-1.09-.15-.17.64-.27,1.1-.32,1.37s-.15.83-.23,1.24c0,.09,0,.18-.05.27l.85.17a8.37,8.37,0,0,0,1.1.17.26.26,0,0,0,.16-.07,2.62,2.62,0,0,0,.24-.71l.51.09c-.08.34-.14.68-.2,1s-.14.82-.26,1.51l-.51-.09a3.56,3.56,0,0,0,0-.9.22.22,0,0,0-.14-.12,5.29,5.29,0,0,0-1.14-.29l-.79-.13-.39,2.21a3.89,3.89,0,0,0-.09.94.31.31,0,0,0,.1.15,5.08,5.08,0,0,0,1,.29l-.09.48-1.8-.38Z"/><path class="cls-4" d="M167.42,73.5c0-.17.05-.33.08-.49.79.17,1.5.3,2.1.4.38.07.93.14,1.64.23,0,.16-.06.32-.08.48a2.39,2.39,0,0,0-.78,0,.22.22,0,0,0-.14.08.52.52,0,0,0-.14.26c0,.21-.18.83-.36,1.85-.14.71-.26,1.43-.38,2.17a3.09,3.09,0,0,0,0,1.37,1.43,1.43,0,0,0,.52.73,3,3,0,0,0,1.27.51,2.9,2.9,0,0,0,1.54-.08,1.51,1.51,0,0,0,.81-.74,10.22,10.22,0,0,0,.53-2.33c.1-.72.21-1.43.31-2.15a3.14,3.14,0,0,0,.06-.88.29.29,0,0,0-.11-.14,2.87,2.87,0,0,0-.84-.26c0-.16.05-.32.08-.48.5.1,1,.19,1.39.25s.82.11,1.37.16c0,.16,0,.32-.07.49a1.29,1.29,0,0,0-.75,0q-.16.1-.27.63c-.17.86-.34,1.84-.5,2.93-.1.7-.18,1.16-.23,1.37a3.18,3.18,0,0,1-.61,1.31,2.53,2.53,0,0,1-1.26.76,4.73,4.73,0,0,1-2,.06,5.11,5.11,0,0,1-2-.68,2.52,2.52,0,0,1-1-1.06,2.87,2.87,0,0,1-.07-1.61L168,76q.06-.3.24-1.59a1.5,1.5,0,0,0,0-.56.27.27,0,0,0-.13-.15A3.55,3.55,0,0,0,167.42,73.5Z"/><path class="cls-4" d="M176.13,82.69c0-.16.05-.33.07-.49a3.27,3.27,0,0,0,.82,0,.21.21,0,0,0,.11-.1,3.48,3.48,0,0,0,.22-.92c.13-.83.23-1.48.29-2,.09-.64.19-1.46.31-2.45A6.55,6.55,0,0,0,178,75.4a.2.2,0,0,0-.08-.13,3.08,3.08,0,0,0-.75-.24c0-.16.05-.32.07-.48.81.14,1.34.22,1.57.25,1,.12,2,.24,3,.34a4,4,0,0,1,1.39.36,1.57,1.57,0,0,1,.63.67,1.67,1.67,0,0,1,.14,1,1.94,1.94,0,0,1-.55,1.17,3.34,3.34,0,0,1-1.56.76c.35.68.7,1.35,1.06,2s.55,1,.84,1.55a1.84,1.84,0,0,0,.37.47,1.15,1.15,0,0,0,.45.13c0,.15,0,.3,0,.45l-.36,0c-1-.11-1.69-.18-2-.2-.29-.58-.72-1.43-1.29-2.54-.34-.65-.67-1.31-1-2a.82.82,0,0,0,.12-.2l.35.07a1.71,1.71,0,0,0,1.15-.3,1.53,1.53,0,0,0,.69-1.18,1.4,1.4,0,0,0-.29-1.14,1.82,1.82,0,0,0-1.22-.55c-.17,0-.42,0-.73,0-.08.57-.17,1.14-.26,1.71l-.33,2.16c-.07.5-.13,1.13-.19,1.9a5.12,5.12,0,0,0,0,1,.25.25,0,0,0,.12.13,2.64,2.64,0,0,0,.8.21l-.06.49c-.72-.12-1.36-.21-1.93-.29S176.82,82.76,176.13,82.69Z"/><path class="cls-4" d="M189,79.47l.85-.43c.06-.69.09-1.29.11-1.81a8.87,8.87,0,0,0,1.59-.46l.17.16a19.44,19.44,0,0,0-.39,2.25,2.63,2.63,0,0,0,.55.09,6.87,6.87,0,0,0,1.1,0l0,0c0,.06,0,.13-.07.2a4.29,4.29,0,0,0-.18.59c-.47-.07-.81-.11-1-.13a4.1,4.1,0,0,0-.49,0c0,.39-.08.74-.1,1a9.62,9.62,0,0,0-.08,2.24c.07.19.25.29.55.32a1.4,1.4,0,0,0,.29,0l.34-.06.09.23c-.27.24-.53.49-.79.75l-.41,0h-.35a1.94,1.94,0,0,1-.84-.25,1.13,1.13,0,0,1-.46-.49,1.63,1.63,0,0,1-.08-.81c0-.19.07-.68.17-1.47s.15-1.25.19-1.65l-.31,0a3.75,3.75,0,0,0-.49,0C189,79.68,189,79.57,189,79.47Z"/><path class="cls-4" d="M193.61,81.82a2.9,2.9,0,0,1,.83-2,3.07,3.07,0,0,1,2.37-.65,3.11,3.11,0,0,1,2.14.8,2.86,2.86,0,0,1,.56,2.14,3,3,0,0,1-.95,2.21,3,3,0,0,1-2.29.65,2.91,2.91,0,0,1-2.1-.91A3,3,0,0,1,193.61,81.82Zm1.7-.27a4.53,4.53,0,0,0,.25,2.25,1.07,1.07,0,0,0,.93.58,1,1,0,0,0,.9-.38,2.8,2.8,0,0,0,.42-1.55,4.62,4.62,0,0,0-.23-2.2,1,1,0,0,0-.92-.55,1,1,0,0,0-.91.38A2.6,2.6,0,0,0,195.31,81.55Z"/><path class="cls-4" d="M209.07,84.32l.17.18-.29.55a3.35,3.35,0,0,1-1,.36,4.1,4.1,0,0,1-1.07.1,2.85,2.85,0,0,1-2.07-.83,2.74,2.74,0,0,1-.67-2.11,3.84,3.84,0,0,1,.29-1.4,1.66,1.66,0,0,1,.62-.72,6.8,6.8,0,0,1,1-.53,2.66,2.66,0,0,1,1.19-.23,2.46,2.46,0,0,1,1.61.59,2.13,2.13,0,0,1,.59,1.75c0,.1,0,.24,0,.44l-1,.15c-.31,0-.75,0-1.33,0l-1.31,0a2.3,2.3,0,0,0,.57,1.54,1.85,1.85,0,0,0,1.34.56,2.7,2.7,0,0,0,.69-.07A3.28,3.28,0,0,0,209.07,84.32Zm-3.3-2.39a9.83,9.83,0,0,0,1.08.09c.32,0,.66,0,1,0,0-.09,0-.18,0-.28a1.66,1.66,0,0,0-.23-1.06.89.89,0,0,0-.72-.36,1,1,0,0,0-.57.14.93.93,0,0,0-.36.42A3.88,3.88,0,0,0,205.77,81.93Z"/><path class="cls-4" d="M216.13,85.09v.48l-.47,0-.75,0c-.38,0-.74,0-1.09,0l-.06-.06c0-.27.05-.54.07-.81l-1.29.9a2.21,2.21,0,0,1-.6.06,1.24,1.24,0,0,1-1-.39,1.49,1.49,0,0,1-.33-1.08,1.42,1.42,0,0,1,.51-1.22,7.46,7.46,0,0,1,2.73-.79,1.77,1.77,0,0,0-.23-1,1.21,1.21,0,0,0-1-.45,1.37,1.37,0,0,0-.34,0,1.5,1.5,0,0,0-.34.11c-.1.21-.19.42-.29.62l-.41-.11c0-.08,0-.17,0-.26v-.49a8.43,8.43,0,0,1,1.33-.67,2.57,2.57,0,0,1,.82-.1,2.7,2.7,0,0,1,1.15.23,1.43,1.43,0,0,1,.64.57,2.25,2.25,0,0,1,.2,1c0,.19,0,.53,0,1s0,.92,0,1.23a5.48,5.48,0,0,0,0,.89.23.23,0,0,0,.12.15A2.47,2.47,0,0,0,216.13,85.09Zm-2.27-2.43a3.63,3.63,0,0,0-1.39.47.86.86,0,0,0-.34.69.76.76,0,0,0,.2.57.75.75,0,0,0,.52.22,1.45,1.45,0,0,0,1-.51C213.84,83.62,213.85,83.14,213.86,82.66Z"/><path class="cls-4" d="M216.85,85.57v-.48a2.8,2.8,0,0,0,.71-.07.23.23,0,0,0,.11-.11,1.77,1.77,0,0,0,.08-.62c0-.57,0-1.09,0-1.56,0-.9,0-1.44,0-1.61a.33.33,0,0,0-.11-.21,2.87,2.87,0,0,0-.77-.08v-.45a9.58,9.58,0,0,0,1.73-.28l.62-.23s.08,0,.08.11v.08c0,.25,0,.6,0,1.06a8.59,8.59,0,0,0,.68-.73,1.73,1.73,0,0,1,.47-.43,1.2,1.2,0,0,1,.55-.1.93.93,0,0,1,.39.06c0,.39-.05.92-.05,1.59l-.27.1a1,1,0,0,0-.31-.32.91.91,0,0,0-.43-.09,1.14,1.14,0,0,0-.62.19.77.77,0,0,0-.33.42,7.21,7.21,0,0,0,0,1.2,16.13,16.13,0,0,0,.05,1.73.3.3,0,0,0,.12.23,3.14,3.14,0,0,0,.92.11v.48h-1.81l-1.05,0Z"/><path class="cls-4" d="M222.25,85.54c0-.16,0-.32,0-.48a2.1,2.1,0,0,0,.75-.12c.06,0,.09-.14.1-.3,0-.39,0-1.09,0-2.09,0-.49,0-.92-.05-1.27a1.25,1.25,0,0,0-.06-.39.22.22,0,0,0-.09-.07l-.71,0c0-.15,0-.3,0-.45a5.28,5.28,0,0,0,1-.15,7,7,0,0,0,1.15-.34l.16-.06c.06,0,.09,0,.09.14v0q0,.17,0,.84l.91-.78a1,1,0,0,1,.35-.21,2.81,2.81,0,0,1,.64-.09,2.28,2.28,0,0,1,1,.18,1.43,1.43,0,0,1,.62.57,2.88,2.88,0,0,1,.23,1.17c0,.24,0,.51,0,.82,0,.64,0,1.18,0,1.64a1.49,1.49,0,0,0,.09.55.22.22,0,0,0,.14.13,3,3,0,0,0,.67.07c0,.16,0,.32,0,.48h-1.24l-1.25.07-.07-.07a17.33,17.33,0,0,0,.09-2.29,5.17,5.17,0,0,0-.25-1.83.91.91,0,0,0-.89-.42,1.24,1.24,0,0,0-.7.22,1,1,0,0,0-.39.44,2.1,2.1,0,0,0,0,.59c0,1.42,0,2.23.07,2.44a.71.71,0,0,0,.11.38,2.4,2.4,0,0,0,.83.1c0,.16,0,.32,0,.48-.71,0-1.31,0-1.8,0C223.54,85.48,223,85.5,222.25,85.54Z"/><path class="cls-4" d="M235.74,85l0-.49a2.47,2.47,0,0,0,.85-.16.33.33,0,0,0,.17-.28s0-.42,0-1.15c0-.14,0-.28,0-.42a3.85,3.85,0,0,0-.15-1,13.29,13.29,0,0,0-1-1.49c-.58-.79-1-1.35-1.31-1.68a2.92,2.92,0,0,0-.74-.65.54.54,0,0,0-.27,0l-.28,0,0-.46c.66-.15,1.3-.32,1.93-.52a1.94,1.94,0,0,1,.55.32,6.9,6.9,0,0,1,.91,1.11c.4.56.9,1.36,1.54,2.42.14-.29.29-.57.43-.86.39-.77.91-1.83,1.53-3.2l1-.07a2.64,2.64,0,0,1,0,.29c-.19.26-.53.85-1,1.77-.8,1.45-1.24,2.29-1.33,2.53a2.45,2.45,0,0,0,0,.92,18.81,18.81,0,0,0,.19,1.92c0,.2.1.32.19.37a3.63,3.63,0,0,0,1,0c0,.16,0,.32,0,.49-.6,0-1.21,0-1.82.09S236.54,85,235.74,85Z"/><path class="cls-4" d="M242.39,84.55c0-.16,0-.33,0-.49a2,2,0,0,0,.89-.19c.06-.05.09-.19.08-.42,0-.77-.07-1.64-.15-2.64-.07-.73-.14-1.52-.24-2.36A7.5,7.5,0,0,0,242.7,77a.22.22,0,0,0-.11-.12,3.7,3.7,0,0,0-.84,0l0-.49c.7,0,1.29-.08,1.79-.13.73-.06,1.49-.14,2.28-.22l1.33-.15c.25,0,.5,0,.73,0l.08.11a11.28,11.28,0,0,0,0,1.73l-.5.06c0-.21-.07-.42-.11-.62a.65.65,0,0,0-.12-.36,1.09,1.09,0,0,0-.45-.09,7.17,7.17,0,0,0-1.09,0c-.34,0-.7.09-1.08.16,0,.66,0,1.13.06,1.4s.09.84.13,1.26a2.45,2.45,0,0,0,0,.27c.24,0,.53,0,.87-.07a7,7,0,0,0,1.1-.14.28.28,0,0,0,.13-.11,3.21,3.21,0,0,0,0-.75l.51,0c0,.35.05.69.09,1s.09.82.17,1.52l-.51,0a3.94,3.94,0,0,0-.21-.87.2.2,0,0,0-.16-.09,5.69,5.69,0,0,0-1.18,0l-.78.09c.07.75.15,1.49.23,2.24a4.43,4.43,0,0,0,.17.93.31.31,0,0,0,.14.11,5,5,0,0,0,1,0c0,.17,0,.33.05.49l-1.83.13Z"/><path class="cls-4" d="M248.71,76.19c0-.17,0-.33-.05-.49.81-.06,1.52-.13,2.12-.2.39,0,.93-.12,1.64-.23l.05.49a2.38,2.38,0,0,0-.75.18.34.34,0,0,0-.12.12.52.52,0,0,0,0,.28c0,.22,0,.85.15,1.88.08.72.15,1.45.24,2.19a3.11,3.11,0,0,0,.38,1.32,1.31,1.31,0,0,0,.71.56,3.35,3.35,0,0,0,2.8-.36,1.5,1.5,0,0,0,.58-.94,9.79,9.79,0,0,0-.14-2.38L256,76.46a2.81,2.81,0,0,0-.18-.86.22.22,0,0,0-.14-.11,3,3,0,0,0-.88,0c0-.16-.05-.32-.07-.48.51,0,1-.09,1.42-.15s.82-.12,1.35-.22l.07.48a1.31,1.31,0,0,0-.71.23,1,1,0,0,0-.09.69c.07.87.18,1.86.33,3,.09.7.15,1.16.15,1.38a3,3,0,0,1-.22,1.42,2.43,2.43,0,0,1-1,1.08,4.62,4.62,0,0,1-1.92.62,5.08,5.08,0,0,1-2.07-.11,2.51,2.51,0,0,1-1.25-.75,3,3,0,0,1-.51-1.53c-.09-.87-.17-1.75-.26-2.62,0-.21-.09-.74-.21-1.6a1.34,1.34,0,0,0-.14-.54.31.31,0,0,0-.16-.11A4.44,4.44,0,0,0,248.71,76.19Z"/><path class="cls-4" d="M259.62,82.62c0-.16-.05-.33-.07-.49a3.73,3.73,0,0,0,.78-.22.25.25,0,0,0,.09-.13,4.28,4.28,0,0,0-.06-1c-.09-.83-.18-1.48-.25-2-.09-.64-.22-1.45-.38-2.44a5.63,5.63,0,0,0-.31-1.34.18.18,0,0,0-.11-.1,2.93,2.93,0,0,0-.78,0c0-.16,0-.33-.07-.49.82-.09,1.35-.15,1.58-.19,1-.15,2-.32,2.95-.49a4.15,4.15,0,0,1,1.43,0,1.57,1.57,0,0,1,.79.47,1.78,1.78,0,0,1,.41.9,1.92,1.92,0,0,1-.21,1.29,3.38,3.38,0,0,1-1.29,1.15c.52.56,1.05,1.11,1.58,1.66l1.23,1.25a1.81,1.81,0,0,0,.49.35,1.2,1.2,0,0,0,.47,0l.07.45-.35.06c-1,.18-1.68.3-2,.37l-1.94-2.09L262.18,78a.79.79,0,0,0,.06-.22,2.55,2.55,0,0,0,.36,0,1.69,1.69,0,0,0,1-.6,1.52,1.52,0,0,0,.34-1.33,1.41,1.41,0,0,0-.6-1,1.83,1.83,0,0,0-1.32-.19l-.71.15c.07.57.14,1.14.22,1.72l.27,2.17c.08.49.19,1.12.35,1.88a5.72,5.72,0,0,0,.24,1,.24.24,0,0,0,.15.1,2.53,2.53,0,0,0,.83,0c0,.16.05.33.08.49-.73.08-1.38.17-1.94.25Z"/><path class="cls-4" d="M271.13,76l.69-.65c-.13-.67-.26-1.27-.39-1.77a9.56,9.56,0,0,0,1.41-.88,1.24,1.24,0,0,0,.2.1,19.44,19.44,0,0,0,.25,2.28,4.87,4.87,0,0,0,.55-.06,6.55,6.55,0,0,0,1.07-.3l.06,0a1.55,1.55,0,0,0,0,.22c0,.22,0,.43,0,.61-.46.06-.81.11-1,.16l-.47.11c.07.39.13.73.19,1a10,10,0,0,0,.54,2.18c.12.16.32.21.62.15a1.09,1.09,0,0,0,.28-.08l.32-.15a1.43,1.43,0,0,0,.14.2c-.19.31-.37.62-.55.94a3.7,3.7,0,0,1-.4.13,2.37,2.37,0,0,1-.34.08,1.86,1.86,0,0,1-.88,0,1.12,1.12,0,0,1-.57-.34,1.54,1.54,0,0,1-.3-.76c0-.19-.12-.67-.24-1.46s-.2-1.24-.28-1.64l-.31.05a3.69,3.69,0,0,0-.48.12C271.17,76.17,271.15,76.07,271.13,76Z"/><path class="cls-4" d="M276.21,77a3,3,0,0,1,.24-2.18,3.17,3.17,0,0,1,2.1-1.28,3.1,3.1,0,0,1,2.3.19A2.81,2.81,0,0,1,282,75.57a2.78,2.78,0,0,1-2.35,3.65A2.58,2.58,0,0,1,276.21,77Zm1.57-.73a4.34,4.34,0,0,0,.86,2.1,1.06,1.06,0,0,0,1.05.3,1,1,0,0,0,.77-.61,2.91,2.91,0,0,0,0-1.61,4.42,4.42,0,0,0-.82-2.05,1.07,1.07,0,0,0-1-.27,1,1,0,0,0-.78.61A2.56,2.56,0,0,0,277.78,76.22Z"/><path class="cls-4" d="M283.71,78.2c0-.16-.07-.31-.11-.47a2.75,2.75,0,0,0,.73-.25.14.14,0,0,0,.06-.12,6.27,6.27,0,0,0-.19-1.16c-.14-.69-.3-1.4-.47-2.13s-.32-1.36-.56-2.29a10.09,10.09,0,0,0-.31-1.12.33.33,0,0,0-.17-.14,2.45,2.45,0,0,0-.69.09c0-.13-.07-.27-.1-.41a9.22,9.22,0,0,0,1.23-.47,4.65,4.65,0,0,0,.82-.48l.14-.09c.06,0,.1,0,.12.14a1.84,1.84,0,0,1,.05.25c.06.28.3,1.35.72,3.22l.36,1.6.09.31a22.8,22.8,0,0,0,2-3.08,6.39,6.39,0,0,0,.76-.15,8.12,8.12,0,0,0,.82-.24l.12.47a4.92,4.92,0,0,0-.77.27,1.51,1.51,0,0,0-.34.34c-.15.18-.53.71-1.18,1.6l1.08.73A24.5,24.5,0,0,0,290.1,76a.83.83,0,0,0,.51.06l.12.46-1.24.27-.85.25c-.51-.4-1-.77-1.52-1.1-.67-.45-1.22-.8-1.64-1,.08.31.15.61.22.92A5.33,5.33,0,0,0,286,76.9a.26.26,0,0,0,.16.15,4.76,4.76,0,0,0,.75-.09c0,.15.07.31.11.46l-1.56.33Z"/><path class="cls-4" d="M296.23,73.91l.22.12-.12.61a3.38,3.38,0,0,1-.82.63,3.94,3.94,0,0,1-1,.4,2.89,2.89,0,0,1-2.23-.18A2.71,2.71,0,0,1,291,73.66a3.66,3.66,0,0,1-.13-1.42,1.64,1.64,0,0,1,.39-.87,6.42,6.42,0,0,1,.78-.79,2.55,2.55,0,0,1,1.08-.57,2.45,2.45,0,0,1,1.72.1,2.13,2.13,0,0,1,1.09,1.49L296,72l-.92.43c-.29.1-.71.23-1.29.38l-1.27.33a2.28,2.28,0,0,0,1,1.32,2,2,0,0,0,1.46.14,2.46,2.46,0,0,0,.65-.28A3,3,0,0,0,296.23,73.91Zm-3.88-1.32c.37-.06.72-.14,1.08-.23s.63-.19,1-.31l-.06-.27a1.73,1.73,0,0,0-.54-.94.94.94,0,0,0-.8-.14,1.08,1.08,0,0,0-.51.3,1,1,0,0,0-.23.51A5.32,5.32,0,0,0,292.35,72.59Z"/><path class="cls-4" d="M298,74.61l-.13-.46a2.22,2.22,0,0,0,.7-.31c.05,0,.05-.16,0-.32-.08-.38-.26-1.06-.53-2-.14-.47-.25-.88-.37-1.22a1.42,1.42,0,0,0-.15-.35.19.19,0,0,0-.11-.05,5.82,5.82,0,0,0-.7.16l-.12-.44a6.47,6.47,0,0,0,.95-.4,7.27,7.27,0,0,0,1-.63l.15-.09c.05,0,.09,0,.12.1v.06c0,.1.09.38.22.81l.69-1a1,1,0,0,1,.29-.29,2.41,2.41,0,0,1,.6-.25,2.29,2.29,0,0,1,1.07-.1,1.44,1.44,0,0,1,.75.4,2.78,2.78,0,0,1,.52,1.07c.06.23.14.49.22.79.16.61.31,1.14.44,1.58a1.83,1.83,0,0,0,.22.51.26.26,0,0,0,.18.09,3.61,3.61,0,0,0,.67-.11c0,.15.09.31.14.46l-.74.2-.47.13-1.21.39-.08,0a16.71,16.71,0,0,0-.5-2.24,5.11,5.11,0,0,0-.7-1.71.91.91,0,0,0-1-.18,1.28,1.28,0,0,0-.64.4,1.06,1.06,0,0,0-.26.52,2.21,2.21,0,0,0,.12.58q.6,2.05.69,2.34c.08.19.14.31.21.34a2.22,2.22,0,0,0,.83-.12c0,.16.09.31.13.47-.69.17-1.28.33-1.75.46Z"/><path class="cls-4" d="M305.83,70.31a3.31,3.31,0,0,0,.33.78,1.15,1.15,0,0,0,.61.26,2,2,0,0,0,.88-.09,1.44,1.44,0,0,0,.79-.5.76.76,0,0,0,.09-.69.69.69,0,0,0-.37-.44,2.16,2.16,0,0,0-1,0,6.73,6.73,0,0,1-1.44,0,1.19,1.19,0,0,1-.63-.32,1.58,1.58,0,0,1-.42-.69,1.71,1.71,0,0,1,0-1,1.76,1.76,0,0,1,.57-.86,3.31,3.31,0,0,1,1.25-.64,5,5,0,0,1,1.68-.24,10.46,10.46,0,0,0,.35,1.44l-.46.15a2.22,2.22,0,0,0-.33-.68.74.74,0,0,0-.42-.17,1.8,1.8,0,0,0-.76.08,1.2,1.2,0,0,0-.69.45.65.65,0,0,0-.11.61.59.59,0,0,0,.39.39,3.44,3.44,0,0,0,1.28,0,5.62,5.62,0,0,1,.94-.07,1.37,1.37,0,0,1,.78.29,1.5,1.5,0,0,1,.48.74,1.72,1.72,0,0,1-.3,1.69,3.43,3.43,0,0,1-1.68,1.09,4.26,4.26,0,0,1-.81.17,7.57,7.57,0,0,1-1,.06l-.12-.06a12.29,12.29,0,0,0-.39-1.56Z"/></g></g></svg>